<?xml version="1.0" encoding="utf-8"?>
<!-- Generator: Adobe Illustrator 24.0.2, SVG Export Plug-In . SVG Version: 6.00 Build 0)  -->
<svg version="1.1" id="Layer_1" xmlns="http://www.w3.org/2000/svg" xmlns:xlink="http://www.w3.org/1999/xlink" x="0px" y="0px"
	 viewBox="0 0 525 453.9" style="enable-background:new 0 0 525 453.9;" xml:space="preserve">
<style type="text/css">
	.st0{fill:#fff;}
</style>
<g>
	<g>
		<g>
			<path class="st0" d="M25.6,116.6c37.3-1.2,74.7-1.7,112-2.6l112-1.5c37.3-0.6,74.7-0.6,112-0.9l56-0.1l28-0.1
				c8.7-0.1,17.4-1.8,25.2-5.2c7.8-3.4,15-8.6,20.1-15.1c5.2-6.5,8.5-14.6,9.5-22.9c1-8.3-0.8-16.5-5.1-23.5c-2.2-3.5-5-6.8-8.1-9.5
				c-3.1-2.7-6.6-5-10.4-6.6c-3.8-1.6-7.9-2.8-12.1-3.2c-2.2-0.3-4.1-0.3-6.5-0.3l-7,0l-28-0.2c-18.7-0.1-37.3-0.3-56-0.6l-56-0.7
				c-18.2-0.1-36.6,3.2-53.3,10.6c-16.9,7.1-31.4,19-44.4,32.2c-6.4,6.7-12.4,13.8-17.5,21.5c-5.1,7.7-7.3,13.2-9.4,21.4
				c1.9-8.5,3.4-14.1,8.1-22.2c4.8-8.1,10.6-15.5,16.8-22.6c12.5-13.9,26.9-26.8,44.2-35c17.3-8.2,36.3-12.2,55.4-12.5l56-0.8
				c18.7-0.3,37.3-0.5,56-0.6l28-0.2l7,0c2.3,0,5,0,7.5,0.3c5.1,0.5,10.1,1.8,14.9,3.8c4.8,2,9.3,4.8,13.2,8.2
				c3.9,3.5,7.2,7.3,10,11.7c2.7,4.4,4.8,9.3,6,14.5c1.1,5.1,1.3,10.5,0.8,15.6c-1.2,10.2-5.1,20.1-11.5,28.2
				c-6.4,8.1-14.8,14.2-24.1,18.3c-9.3,4-19.3,5.9-29.3,6l-28,0l-56-0.1c-37.3-0.3-74.7-0.3-112-0.9l-112-1.5
				C100.3,118.2,63,117.8,25.6,116.6z"/>
		</g>
		<g>
			<path class="st0" d="M25.6,116.6c17.3-0.4,34.6-1.3,52.7-2.9c18.2-1.5,37.2-3,56.1-4.1c36.6-1.9,72.8-3.3,109.2-5l109.2-3.6
				c18.2-0.6,36.4-1,54.6-1.4l27.2-0.6l6.8-0.1l3.4-0.1c1.1,0,1.8-0.1,2.8-0.1c3.7-0.3,7.4-0.9,10.8-1.9c6.9-2,13.2-5.5,18.1-10.2
				c2.4-2.4,4.4-4.9,5.9-7.6c1.5-2.8,2.7-5.8,3.3-9c0.3-1.5,0.6-3.3,0.6-4.7c0.1-1.4,0-2.8-0.2-4.2c-0.4-2.8-1.2-5.4-2.6-7.8
				c-1.2-2.3-3.4-5-5.7-7.1c-2-1.9-4.5-3.5-7.2-4.6c-2.8-1.2-5.6-1.9-8.8-2.1c-2.4-0.2-7.9,0-12.3-0.1l-27.3,0.1l-54.7,0
				c-18.2,0-36.3,0-54.5-0.2c-2.4,0-4.3,0-6.3,0c-2,0-4,0.1-6,0.3c-4,0.3-8,0.8-11.9,1.5c-7.9,1.4-15.5,3.6-22.8,6.7
				c-3.8,1.6-7.2,3.2-10.6,5.1c-3.3,1.9-6.7,4-9.9,6.3c-6.5,4.7-12.6,10.1-18.6,16.1c-5.9,5.9-11.2,12.1-15.7,18.6
				c-2.4,3.4-4.3,6.5-5.6,9.3c-1.3,2.8-2.4,6-3.4,10c-2.3,8.9-11.4,14.3-20.4,11.9c-8.7-2.3-14-11.1-12.1-19.8l0-0.1
				c1-4.6,2.3-10.2,4.5-16.1c2.2-5.8,5.4-11.2,8.2-15.5c5.9-9,12.5-17,19.5-24.5c7-7.4,14.6-14.6,23.1-21c8.4-6.4,18.2-12.1,28-16.2
				C263.7,8,274,5,284.4,3.1c5.2-1,10.5-1.6,15.7-2c5.1-0.5,10.8-0.6,15.3-0.6L372.4,0l57,0l28.4,0.1c2.6,0,5.5,0,8.7,0.4
				c2.8,0.3,6,0.8,8.9,1.5c5.9,1.4,11.6,3.6,17,6.6c2.7,1.5,5.3,3.2,7.8,5.1c1.2,1,2.5,2,3.6,3.1c1.1,1,2.2,2,3.2,3.1
				c2,2.2,4,4.4,5.8,6.9c0.9,1.2,1.8,2.4,2.6,3.7c0.9,1.4,1.7,2.8,2.4,4.1c2.9,5.3,5.1,11.3,6.3,17.6c1.1,6.1,1.3,12.3,0.6,18.4
				c-1.4,11.8-5.8,23.1-12.8,32.8c-7,9.6-16.2,17-26.3,22.1c-10.2,5.3-21.3,8-32.2,8.8c-2.7,0.2-5.5,0.3-8.2,0.2l-7.1-0.1l-14.2-0.3
				c-19-0.4-38-0.7-56.9-1.3L252.9,129l-113.7-5.1c-19.6-1.1-39.5-2.6-58.6-4.2C61.7,118,43.6,117,25.6,116.6z M25.6,116.6
				c19.9,0.5,39.7,0.3,58.7-0.5c18.9-0.8,36.8-1.3,55.1-1.6l113.8-2.2l113.7-1.9c18.9-0.5,37.9-0.6,56.8-0.9l14.2-0.2l7.1-0.1
				c2.1,0,4-0.2,6-0.4c7.9-0.9,15.6-3.1,22.1-6.8c6.6-3.7,12.4-8.8,16.3-14.6c4-5.8,6.3-12.9,7-19.9c0.3-3.4,0.2-6.8-0.5-9.9
				c-0.6-3.1-1.8-6-3.5-9c-0.5-0.8-0.8-1.4-1.3-2c-0.5-0.7-1-1.5-1.6-2.1c-1.1-1.4-2.2-2.7-3.5-3.9c-0.6-0.6-1.3-1.2-1.9-1.8
				c-0.6-0.5-1.2-1-1.9-1.5c-1.3-1-2.7-1.8-4.1-2.6c-2.9-1.5-6.1-2.7-9.5-3.4c-1.7-0.4-3.2-0.6-5.1-0.8c-1.5-0.1-3.3-0.1-5.5-0.1
				l-28.5,0.5L372.8,32l-56.8,1c-5,0.1-8.8,0.2-13.1,0.6c-4.2,0.4-8.3,0.9-12.5,1.7c-8.2,1.6-16.2,4-23.7,7.2
				c-14.9,6.3-27.8,16.8-39.8,29.7c-5.9,6.3-11.3,13.1-15.8,20c-4.7,7.2-6.2,11.3-8.3,20.8l-32.4-8c1.3-4.8,3-10.4,5.6-15.8
				c2.6-5.4,5.6-9.9,8.5-14c6-8.4,12.6-15.9,19.6-22.9c6.9-6.9,14.5-13.5,22.8-19.4c4.2-2.9,8.5-5.7,13.1-8.3
				c4.5-2.5,9.5-4.8,14-6.6c19-7.8,40-11.1,59.7-10.5c18.2,0.2,36.4,0.8,54.6,1.2l54.5,1.1l27.3,0.5c4.7,0.2,8.4-0.1,15,0.5
				c5.9,0.6,12,2.2,17.5,4.7c5.7,2.6,10.9,6,15.4,10.4c4.3,4.2,7.8,8.7,10.9,14.5c3,5.6,4.8,11.9,5.3,18.2c0.3,3.2,0.3,6.3,0,9.4
				c-0.3,3.1-0.8,5.8-1.5,8.7c-1.4,5.7-3.7,11.2-6.8,16.3c-3.1,5.1-7,9.7-11.3,13.5c-8.6,7.6-18.9,12.7-29.5,15.4
				c-5.3,1.3-10.7,2-16.1,2.2c-1.3,0-2.8,0.1-4,0.1l-3.4,0l-6.8-0.1l-27.3-0.4l-54.5-0.9l-109.1-1.8l-109-2
				c-17.5-0.3-34.8-0.9-53-1.6C63.7,116.2,44.7,116.1,25.6,116.6z"/>
		</g>
	</g>
	<g>
		<g>
			<path class="st0" d="M0,221.1c34.2-0.9,68.5-1.4,102.8-2c34.2-0.7,68.5-1,102.8-1.3l102.8-1.1l102.9-0.6c9.4,0.2,19,2.9,26.9,8.7
				c7.9,5.7,13.8,14.3,15.8,24c2.1,9.8,0.1,19.6-3.3,28.1c-3.4,8.5-8.3,16.5-14.6,23.2c-6.3,6.8-13.7,12.3-21.7,16.5
				c-7.9,4.3-16.5,7.5-25.3,9.4c-8.8,1.9-17.8,2.8-26.7,2.7l-25.7,0l-102.8-0.3c-34.2-0.2-68.5-0.3-102.8-0.8l3.6-2.2
				c-4.9,9.8-9.1,20.4-12,31.1c-2.9,10.7-4.7,21.8-3.6,32.6c0.6,5.3,1.9,10.5,4.4,15.1s6,8.5,10.4,11.4c4.4,3,9.5,5,14.8,6.1
				c2.6,0.8,5.4,1,8,1.4c1.3,0.2,2.7,0.1,4.1,0.2c1.4,0,2.7,0.1,4.1,0c10.9-0.5,21.5-4.6,30.5-11.1c9.1-6.5,16.7-14.9,23.3-24.1
				c6.6-9.2,12.1-19.2,16.9-29.5c4.8-10.3,9-21,12.3-31.9c-5.7,22.1-14.3,43.7-26.9,62.9c-6.4,9.6-13.9,18.6-23.3,25.7
				c-9.2,7.2-20.6,12.1-32.5,13c-6,0.5-12,0-17.8-1.3c-5.8-1.2-11.6-3.2-16.8-6.6c-5.2-3.3-9.6-7.9-12.7-13.3
				c-3.1-5.4-4.7-11.4-5.5-17.4c-1.5-12,0.3-23.9,3.1-35.2c2.9-11.4,6.8-22.2,12-33c0.6-1.3,2-2.2,3.4-2.2h0.2
				c34.3-0.5,68.5-0.6,102.8-0.8l102.8-0.3l25.7,0c8.3,0.1,16.4-0.7,24.4-2.5c15.7-3.6,30.8-11.3,41.7-22.8
				c5.4-5.8,9.7-12.6,12.7-20c2.9-7.3,4.4-15.1,2.9-22.1c-1.4-7-5.8-13.6-11.8-17.9c-6-4.4-13.6-6.7-21.2-6.9l-102.7-0.6l-102.8-1.1
				c-34.2-0.4-68.5-0.6-102.8-1.3C68.5,222.4,34.2,221.9,0,221.1z"/>
		</g>
		<g>
			<path class="st0" d="M0,221.1c16.9-0.3,33.6-1.1,51-2.4c17.4-1.3,35.8-2.5,53.7-3.2c34.9-1.6,69.9-3,104.8-4.2
				c34.9-1.2,69.9-2.6,104.8-3.5l52.5-1.3l26.2-0.7l13.1-0.3l3.3-0.1c1.1,0,2.1-0.1,3.7,0c2.7,0.1,5.3,0.3,7.9,0.8
				c10.5,1.6,21,6.2,29.2,13.8c8.2,7.6,14,18,15.9,29.3c1.9,11.5-0.3,22.5-4,32c-3.7,9.4-8.8,18.3-15.5,26.1
				c-6.7,7.7-14.7,14.2-23.2,19.3c-8.5,5.1-17.8,9.1-27.3,11.6c-9.5,2.6-19.3,4-29,4.3l-26.6,0.4l-104.8,0.6l-104.9,0.2
				c-8.8,0-15.9-7.1-15.9-15.9c0-5.7,3-10.7,7.5-13.5l0.3-0.2l3.6-2.2c7.5-4.7,17.3-2.3,22,5.1c3,4.8,3.1,10.6,0.8,15.3l-0.2,0.4
				c-4.3,8.8-7.9,18.1-10.5,27.4c-2.6,9.3-4,18.6-3.3,26.5c0.3,3.8,1.2,7.2,2.5,9.6c1.3,2.4,2.9,4.2,5.3,5.9
				c1.3,0.9,2.6,1.5,4.1,2.2c0.8,0.3,1.6,0.6,2.5,0.9l1.3,0.4l1.9,0.5l0.7,0.2l0.4,0.1l1.2,0.2l4,0.5c0.9,0,1.7,0,2.5,0
				c0.5-0.1,0.9,0,1.4,0l1.2-0.1c7.4-0.3,15.2-3.3,22.1-8.5c7.2-5.2,13.6-12.4,19.3-20.5c5.7-8.2,10.7-17.2,15.1-26.7
				c4.5-9.6,8.2-19.3,11.1-29.2l0-0.1c2.7-8.9,12-13.9,20.9-11.2c8.7,2.6,13.6,11.6,11.4,20.3c-6.1,23.5-15.3,46.5-29.1,67.5
				c-7,10.5-15.5,20.8-26.3,29.2c-10.9,8.6-24.4,15-39.1,16.7c-7.2,0.9-14.6,0.7-21.7-0.6l-2.7-0.5l-2.3-0.5
				c-1.8-0.4-3.5-0.9-5.3-1.4c-3.6-1.1-7.2-2.5-10.6-4.2c-6.9-3.5-13.5-8.7-18.5-15.1c-5.1-6.5-8.4-13.9-10.3-21.2
				c-0.9-3.6-1.6-7.3-1.9-10.9c-0.3-3.5-0.5-7-0.4-10.4c0.1-6.8,0.9-13.4,2.1-19.7c2.4-12.6,6.3-24.3,11.1-35.8
				c1.2-2.9,2.5-5.7,3.8-8.5l0.3-0.5l0.7-1.4c0.9-1.6,2-3.1,3.3-4.3c2.6-2.6,5.9-4.4,9.4-5.2c0.9-0.2,1.8-0.3,2.7-0.4l1.4-0.1h0.4
				h1.1h2.1l17.1,0l34.2,0l68.4,0.2l68.4,0.4l34.2,0.4l8.3,0.1c2.5,0,5-0.1,7.5-0.3c5-0.4,9.9-1.1,14.6-2.3
				c9.5-2.4,18.6-6.5,26.1-12.2c3.8-2.9,7.1-6.1,9.9-9.7c2.8-3.6,5.2-7.7,7-12c1.8-4.1,2.8-8.4,2.9-11.9c0-3.4-0.9-6.7-2.9-9.7
				c-2-3-4.6-5.4-8.2-7.1s-7.6-2.8-12-2.9c-45.5-1.3-91-2.2-136.5-3.7c-45.5-1.6-91.1-3.2-136.6-5.2l-34.2-1.5
				c-11.8-0.6-23.6-1.2-35.3-2C43.8,222.8,22,221.3,0,221.1z M0,221.1c23.6,0.6,47.3,0,69.5-0.9c11.1-0.4,22.1-0.6,33.1-0.7
				l34.1-0.6l136.7-2l136.9-1.8c6.9,0,14.3,1.3,21.1,4.3c6.8,2.9,13.3,8,17.8,14.5c4.5,6.4,7.3,14.4,7.4,22.4
				c0.2,7.9-1.7,15-4.2,21.3c-2.5,6.2-5.7,12.2-9.7,17.7c-4.1,5.5-8.9,10.4-14,14.6c-10.4,8.4-22.4,14.2-34.8,17.7
				c-6.3,1.8-12.6,2.9-19,3.6c-3.2,0.3-6.4,0.5-9.5,0.6l-8.8,0.2l-34.1,0.6l-68.3,0.9l-68.3,1l-34.1,0.6l-17.1,0.3l-2.1,0h-1.1
				c-0.1,0-0.3,0-0.2,0c0.3,0,0.6,0,0.9,0c0.6,0,1.1-0.2,1.6-0.3c2.1-0.5,4.1-1.6,5.7-3.1c0.8-0.8,1.5-1.7,2-2.7l0.3-0.6l-0.1,0.2
				l-0.2,0.5c-1.1,2.3-2.1,4.7-3.1,7.2c-7.6,19-12.9,40.9-8.9,56.4c2,7.5,5.8,12.2,12.3,15.5c1.6,0.8,3.3,1.5,5.2,2
				c0.9,0.3,1.9,0.5,2.9,0.8l1.9,0.4l1.5,0.3c4.1,0.7,8.3,0.8,12.3,0.3c7.9-1,15.8-4.5,22.7-10.1c7.2-5.6,13.5-13.1,19-21.6
				c11.1-17.2,19.1-37,24.3-57.6l32.3,9c-3.5,11.7-8,22.9-13,33.7c-5.1,10.8-11,21.6-18.2,31.8c-7.2,10.1-15.9,20-27,28.1
				c-11.1,8.1-25.1,14-40.2,14.6l1.2-0.1c-2.2,0.1-4.5,0.2-6.8,0.1l-5.6-0.3l-4.1-0.6c-0.9-0.1-1.8-0.3-2.8-0.5l-1.6-0.3l-1.3-0.3
				l-2.1-0.5l-2.6-0.8c-1.8-0.5-3.5-1.2-5.2-1.9c-3.4-1.4-7-3.3-10.2-5.4c-6.6-4.4-12.4-10.9-16-18.2c-3.6-7.3-5.2-14.7-5.8-21.7
				c-1-13.8,1.4-26.2,4.6-37.8c3.3-11.5,7.6-22.5,13-33.1L143,339l-3.6,2.2l-8.1-29.6l104.7,1.6l104.8,1.2l25.8,0.4
				c7.8-0.1,15.5-0.9,22.8-2.7c14.7-3.5,28.5-11.1,38.4-21.8c4.8-5.2,8.8-11.6,11.6-18.4c2.8-6.6,4.1-13.4,3.2-19.3
				c-0.8-6-3.7-11.7-8.2-16.2c-4.5-4.4-10.5-7.5-17.2-8.8c-1.6-0.3-3.4-0.6-5.1-0.7c-0.6-0.1-1.8-0.1-2.9-0.1l-3.3,0l-13.1-0.2
				l-26.2-0.4l-52.3-0.8l-104.8-1.4l-52.4-0.7l-52.4-0.9c-17-0.2-33.6-0.6-51.1-1.3C36.3,220.8,18.1,220.7,0,221.1z"/>
		</g>
	</g>
</g>
</svg>
